<?xml version="1.0" encoding="UTF-8" standalone="no"?>
<!-- Created with Inkscape (http://www.inkscape.org/) -->

<svg
   width="45.559139mm"
   height="6.3584704mm"
   viewBox="0 0 45.55914 6.3584703"
   version="1.1"
   id="svg1"
   xml:space="preserve"
   sodipodi:docname="bitmap.svg"
   inkscape:export-filename="../../Documents/hackpad-4x3/logo.svg"
   inkscape:export-xdpi="96"
   inkscape:export-ydpi="96"
   inkscape:version="1.4 (e7c3feb1, 2024-10-09)"
   xmlns:inkscape="http://www.inkscape.org/namespaces/inkscape"
   xmlns:sodipodi="http://sodipodi.sourceforge.net/DTD/sodipodi-0.dtd"
   xmlns="http://www.w3.org/2000/svg"
   xmlns:svg="http://www.w3.org/2000/svg"><sodipodi:namedview
     id="namedview1"
     pagecolor="#505050"
     bordercolor="#eeeeee"
     borderopacity="1"
     inkscape:showpageshadow="0"
     inkscape:pageopacity="0"
     inkscape:pagecheckerboard="0"
     inkscape:deskcolor="#505050"
     inkscape:document-units="mm"
     inkscape:zoom="3.1586191"
     inkscape:cx="37.199801"
     inkscape:cy="30.234732"
     inkscape:window-width="1112"
     inkscape:window-height="246"
     inkscape:window-x="104"
     inkscape:window-y="34"
     inkscape:window-maximized="0"
     inkscape:current-layer="svg1" /><defs
     id="defs1" /><g
     id="layer1"
     transform="matrix(0.3761882,0,0,0.3761882,-0.83435746,-47.754756)"
     style="display:inline"><g
       transform="matrix(9.944741e-4,0,0,-9.944741e-4,98.635366,143.85125)"
       fill="#000000"
       stroke="none"
       id="g4"
       style="fill:#83ed06;fill-opacity:1"><path
         d="M 3043,11841 C 2357,11414 1781,10889 1296,10250 496,9197 50,7937 4,6600 l -7,-200 h 2241 2242 v 45 c 0,25 5,89 11,143 63,583 374,1097 855,1413 l 94,62 -29,51 c -725,1263 -2204,3812 -2213,3813 -7,1 -77,-38 -155,-86 z"
         id="path1"
         style="fill:#83ed06;fill-opacity:1" /><path
         d="M 9337,11488 C 8933,10787 7368,8076 7364,8069 c -2,-4 33,-30 77,-59 430,-280 739,-732 838,-1225 22,-110 41,-269 41,-340 v -45 h 2242 2241 l -7,198 c -23,649 -134,1264 -337,1857 -452,1325 -1323,2461 -2494,3251 -171,115 -347,224 -362,224 -6,0 -125,-199 -266,-442 z"
         id="path2"
         style="fill:#83ed06;fill-opacity:1" /><path
         d="m 6225,7665 c -675,-94 -1166,-714 -1096,-1382 32,-312 152,-565 370,-784 219,-218 472,-338 783,-370 360,-38 734,93 1001,350 469,452 527,1168 137,1690 -275,368 -738,560 -1195,496 z"
         id="path3"
         style="fill:#83ed06;fill-opacity:1" /><path
         d="M 4932,3856 C 3132,739 3206,869 3221,855 3245,833 3546,676 3715,597 4394,282 5073,100 5851,23 c 249,-24 844,-24 1098,1 764,73 1449,256 2121,566 144,66 464,233 501,261 l 22,17 -1078,1868 C 7922,3764 7419,4635 7398,4671 l -38,66 -118,-58 c -204,-100 -422,-163 -654,-188 -339,-37 -716,32 -1032,188 l -116,57 z"
         id="path4"
         style="fill:#83ed06;fill-opacity:1" /></g></g><path
     d="M 1.2615339,6.23147 V 2.065868 H 0.13546672 V 6.23147 Z M 0,0.702734 c 0,0.372533 0.3132668,0.6858 0.69426695,0.6858 0.38946685,0 0.69426695,-0.313267 0.69426695,-0.6858 C 1.3885339,0.313267 1.0837338,0 0.69426695,0 0.3132668,0 0,0.313267 0,0.702734 Z m 4.3349318,2.277534 c 0.5588002,0 0.821267,0.3556 0.9228671,0.702734 L 6.2653326,3.344335 C 6.0875325,2.641601 5.4440656,1.938868 4.3095318,1.938868 c -1.2107338,0 -2.1590008,0.922867 -2.1590008,2.209801 0,1.278467 0.9652003,2.209801 2.1928675,2.209801 1.1091338,0 1.7610674,-0.711201 1.9473341,-1.405468 l -0.9906004,-0.3302 c -0.093133,0.321734 -0.3810001,0.702734 -0.9567337,0.702734 -0.5757336,0 -1.0668004,-0.423334 -1.0668004,-1.176867 0,-0.753534 0.4826002,-1.168401 1.0583337,-1.168401 z m 3.9115951,0.804334 c 0.0254,-0.4572 0.3048001,-0.8128 0.7789336,-0.8128 0.5418669,0 0.770467,0.364066 0.770467,0.829733 V 6.23147 H 10.921995 V 3.606802 c 0,-0.914401 -0.491067,-1.651001 -1.549401,-1.651001 -0.3979335,0 -0.8551337,0.135467 -1.1260671,0.4572 V 0.1016 H 7.1204597 V 6.23147 H 8.2465269 Z M 12.886259,3.674535 c 0.0254,-0.381 0.347134,-0.821267 0.931334,-0.821267 0.643467,0 0.9144,0.4064 0.931334,0.821267 z m 1.972735,1.083734 c -0.135467,0.372533 -0.423334,0.635 -0.948268,0.635 -0.5588,0 -1.024467,-0.397933 -1.049867,-0.948267 h 2.980268 c 0,-0.01693 0.01693,-0.186267 0.01693,-0.347133 0,-1.337734 -0.770467,-2.159001 -2.057401,-2.159001 -1.066801,0 -2.048934,0.8636 -2.048934,2.192867 0,1.405468 1.007533,2.226735 2.150534,2.226735 1.024467,0 1.684867,-0.601134 1.896534,-1.320801 z M 19.041529,2.065868 18.135596,4.741336 17.365129,2.065868 h -1.185334 l 1.329267,4.165602 h 1.143001 L 19.608796,3.386668 20.582463,6.23147 H 21.70853 L 23.012398,2.065868 H 21.894797 L 21.12433,4.749802 20.226863,2.065868 Z m 7.213598,-0.01693 c -0.08467,-0.0085 -0.169334,-0.01693 -0.262467,-0.01693 -0.3556,0 -0.931334,0.1016 -1.185334,0.651934 V 2.065875 h -1.0922 v 4.165602 h 1.126067 V 4.326476 c 0,-0.897467 0.499533,-1.176867 1.075267,-1.176867 0.1016,0 0.211667,0.0085 0.338667,0.03387 z m 0.567277,3.048001 c 0,0.651933 0.541867,1.253067 1.430867,1.253067 0.618067,0 1.016001,-0.287867 1.227667,-0.618067 0,0.160867 0.01693,0.389467 0.04233,0.499534 h 1.032933 c -0.0254,-0.143934 -0.0508,-0.440267 -0.0508,-0.660401 V 3.522138 c 0,-0.8382 -0.491066,-1.583267 -1.811867,-1.583267 -1.1176,0 -1.718734,0.719667 -1.786467,1.3716 l 0.999067,0.211667 c 0.03387,-0.364067 0.3048,-0.677333 0.795867,-0.677333 0.474133,0 0.702733,0.245533 0.702733,0.541866 0,0.143934 -0.0762,0.262467 -0.313266,0.296334 L 28.067,3.835405 c -0.694266,0.1016 -1.2446,0.516467 -1.2446,1.261534 z m 1.667934,0.414867 c -0.364067,0 -0.541867,-0.237067 -0.541867,-0.482601 0,-0.321733 0.2286,-0.4826 0.516467,-0.524933 l 0.9398,-0.143934 v 0.186267 c 0,0.7366 -0.440266,0.965201 -0.9144,0.965201 z m 7.103527,-5.410203 h -1.109134 v 2.379135 c -0.118533,-0.220134 -0.4572,-0.516467 -1.176867,-0.516467 -1.176867,0 -1.998134,0.956734 -1.998134,2.175934 0,1.261534 0.846667,2.192868 2.032001,2.192868 0.5588,0 0.982134,-0.254001 1.1684,-0.584201 0,0.194734 0.0254,0.397934 0.04233,0.482601 h 1.075267 c -0.01693,-0.169334 -0.03387,-0.474134 -0.03387,-0.753534 z m -3.149601,4.038602 c 0,-0.745067 0.4572,-1.1684 1.032934,-1.1684 0.575733,0 1.024467,0.414866 1.024467,1.159933 0,0.753534 -0.448734,1.193801 -1.024467,1.193801 -0.592667,0 -1.032934,-0.440267 -1.032934,-1.185334 z m 10.439409,-0.3048 c 0,-0.4826 0.287867,-0.8636 0.778934,-0.8636 0.541867,0 0.770467,0.364066 0.770467,0.829733 v 2.429935 h 1.126067 V 3.606805 c 0,-0.914401 -0.474134,-1.651001 -1.507067,-1.651001 -0.448734,0 -0.948267,0.194734 -1.202268,0.626534 V 2.065871 h -1.0922 v 4.165602 h 1.126067 z"
     id="text1"
     style="font-weight:bold;font-size:8.46667px;line-height:1;font-family:'Circular Std Bold';-inkscape-font-specification:'Circular Std Bold,  Bold';text-align:center;text-anchor:middle;fill:#83ed06;stroke-width:0"
     aria-label="ichewradon"
     sodipodi:nodetypes="cccccssssssccsssccssscssccsscccccccscccsccsssscccccccccccccccccscccccssccsscccsssccssccssssccsscccssscccscssssssssccsscccccs" /></svg>
