<svg xmlns="http://www.w3.org/2000/svg" viewBox="36.269981 1.897261 4.790845 4.4635" preserveAspectRatio="xMidYMid meet">
  <g transform="matrix(0.3761882,0,0,0.3761882,-0.83435746,-47.754756)">
    <g transform="matrix(9.944741e-4,0,0,-9.944741e-4,98.635366,143.85125)" fill="#83ed06">
      <path d="M3043 11841C2357 11414 1781 10889 1296 10250 496 9197 50 7937 4 6600l-7-200h2241 2242v45c0 25 5 89 11 143 63 583 374 1097 855 1413l94 62-29 51c-725 1263-2204 3812-2213 3813-7 1-77-38-155-86z"/>
      <path d="M9337 11488C8933 10787 7368 8076 7364 8069c-2-4 33-30 77-59 430-280 739-732 838-1225 22-110 41-269 41-340v-45h2242 2241l-7 198c-23 649-134 1264-337 1857-452 1325-1323 2461-2494 3251-171 115-347 224-362 224-6 0-125-199-266-442z"/>
      <path d="m6225 7665c-675-94-1166-714-1096-1382 32-312 152-565 370-784 219-218 472-338 783-370 360-38 734 93 1001 350 469 452 527 1168 137 1690-275 368-738 560-1195 496z"/>
      <path d="M4932 3856C3132 739 3206 869 3221 855 3245 833 3546 676 3715 597 4394 282 5073 100 5851 23c249-24 844-24 1098 1 764 73 1449 256 2121 566 144 66 464 233 501 261l22 17-1078 1868C7922 3764 7419 4635 7398 4671l-38 66-118-58c-204-100-422-163-654-188-339-37-716 32-1032 188l-116 57z"/>
    </g>
  </g>
</svg>